<svg viewBox="0 0 316.9 76.73" xmlns="http://www.w3.org/2000/svg" id="Layer_1"><path style="fill:#2d2a26; stroke-width:0px;" d="M0,42.83v-3.15h8.19v3.78c0,3.94,1.73,5.35,4.49,5.35s4.49-1.42,4.49-5.51c0-4.57-1.73-7.48-7.4-12.44C2.52,24.49.16,20,.16,13.7.16,5.04,4.65,0,13.07,0s12.6,5.04,12.6,13.86v2.28h-8.19v-2.83c0-3.94-1.57-5.43-4.33-5.43s-4.33,1.5-4.33,5.28c0,4.02,1.81,6.93,7.48,11.89,7.24,6.38,9.53,10.79,9.53,17.64,0,8.98-4.57,14.02-13.07,14.02S0,51.65,0,42.83Z"></path><path style="fill:#2d2a26; stroke-width:0px;" d="M36.28.79h12.36l5.51,39.45h.16L59.82.79h12.36v55.12h-8.19V14.17h-.16l-6.3,41.73h-7.24l-6.3-41.73h-.16v41.73h-7.56V.79h0Z"></path><path style="fill:#2d2a26; stroke-width:0px;" d="M83.51,42.83V13.86c0-8.82,4.65-13.86,13.15-13.86s13.15,5.04,13.15,13.86v28.98c0,8.82-4.65,13.86-13.15,13.86s-13.15-5.04-13.15-13.86h0ZM101.14,43.39V13.31c0-3.94-1.73-5.43-4.49-5.43s-4.49,1.5-4.49,5.43v30.08c0,3.94,1.73,5.43,4.49,5.43s4.49-1.5,4.49-5.43Z"></path><path style="fill:#2d2a26; stroke-width:0px;" d="M121.13.79h8.66v23.23L140.81.79h8.66l-10.32,20.24,10.47,34.88h-9.06l-7.32-24.57-3.46,7.01v17.56h-8.66V.79h.01Z"></path><rect style="fill:#2d2a26; stroke-width:0px;" height="7.87" width="23.62" y="48.03" x="159.22"></rect><rect style="fill:#2d2a26; stroke-width:0px;" height="7.87" width="23.62" y=".79" x="159.22"></rect><path style="fill:#2d2a26; stroke-width:0px;" d="M193.89.79h8.66v23.23L213.58.79h8.66l-10.31,20.24,10.47,34.88h-9.06l-7.32-24.57-3.46,7.01v17.56h-8.66V.79h0Z"></path><path style="fill:#2d2a26; stroke-width:0px;" d="M231.98.79h8.66v55.12h-8.66V.79Z"></path><path style="fill:#2d2a26; stroke-width:0px;" d="M252.59.79h10.87l8.42,32.99h.16V.79h7.72v55.12h-8.9l-10.39-40.24h-.16v40.24h-7.72V.79Z"></path><path style="fill:#2d2a26; stroke-width:0px;" d="M291.08,42.83V13.86c0-8.82,4.41-13.86,12.91-13.86s12.91,5.04,12.91,13.86v4.72h-8.19v-5.28c0-3.94-1.73-5.43-4.49-5.43s-4.49,1.5-4.49,5.43v30.16c0,3.94,1.73,5.35,4.49,5.35s4.49-1.42,4.49-5.35v-10.79h-4.33v-7.87h12.52v18.03c0,8.82-4.41,13.86-12.91,13.86s-12.91-5.04-12.91-13.86Z"></path><rect style="fill:#c89211; stroke-width:0px;" height="7.93" width="23.79" y="23.4" x="159.27"></rect><path style="stroke-width:0px;" d="M.4,66.6v-1.76h9.56v1.76H.4ZM4.22,76.56v-11.38h1.92v11.38h-1.92Z"></path><path style="stroke-width:0px;" d="M11.63,76.56v-11.72h1.92v11.72h-1.92ZM12.95,71.37v-1.76h6.54v1.76h-6.54ZM19.08,76.56v-11.72h1.92v11.72h-1.92Z"></path><path style="stroke-width:0px;" d="M23.55,76.56v-11.72h1.92v11.72h-1.92ZM24.87,66.6v-1.76h6.48v1.76h-6.48ZM24.87,71.42v-1.69h5.99v1.69h-5.99ZM24.87,76.56v-1.76h6.56v1.76h-6.56Z"></path><path style="stroke-width:0px;" d="M41.29,76.73c-.88,0-1.67-.2-2.38-.6-.7-.4-1.26-.95-1.67-1.65s-.61-1.49-.61-2.37v-7.26h1.92v7.25c0,.57.12,1.06.36,1.48.24.42.57.74.98.97.41.23.88.34,1.39.34s.99-.11,1.39-.34.72-.55.95-.97c.23-.42.35-.91.35-1.46v-7.26h1.92v7.28c0,.88-.2,1.67-.6,2.36-.4.69-.95,1.24-1.64,1.64-.69.4-1.48.6-2.38.6Z"></path><path style="stroke-width:0px;" d="M48.32,76.56v-11.72h1.92v11.72h-1.92ZM55.4,76.56l-5.42-6.11,5.31-5.61h2.46l-5.86,6.09v-1.05l6.03,6.68h-2.51Z"></path><path style="stroke-width:0px;" d="M58.71,68.94l1.14-2.13.62-.17c-.07.13-.15.25-.23.33-.09.09-.2.13-.32.13-.26,0-.49-.11-.71-.33-.22-.22-.33-.49-.33-.83,0-.36.12-.66.37-.91.25-.25.54-.38.89-.38s.63.13.88.38.38.56.38.91c0,.15-.03.32-.09.51-.06.2-.17.44-.33.75l-1.24,2.28-1.02-.55Z"></path><path style="stroke-width:0px;" d="M66.11,76.73c-.93,0-1.71-.17-2.36-.5s-1.23-.83-1.74-1.47l1.31-1.31c.32.47.71.83,1.15,1.1.45.26,1.02.39,1.71.39.65,0,1.16-.13,1.55-.4s.58-.64.58-1.1c0-.39-.1-.71-.3-.95-.2-.25-.47-.45-.8-.61-.33-.16-.69-.31-1.09-.44s-.79-.27-1.19-.44c-.4-.16-.76-.37-1.09-.61-.33-.25-.59-.56-.8-.95-.2-.39-.3-.89-.3-1.49,0-.69.17-1.28.51-1.77s.8-.86,1.38-1.11c.58-.26,1.23-.39,1.94-.39.77,0,1.46.15,2.07.45.61.3,1.1.69,1.48,1.16l-1.31,1.31c-.33-.38-.68-.66-1.05-.85-.36-.18-.78-.28-1.25-.28-.58,0-1.04.12-1.36.35-.33.23-.49.56-.49.99,0,.36.1.64.3.86.2.22.47.4.8.55.33.15.69.29,1.09.43.4.13.79.28,1.19.45.4.17.76.38,1.09.64.33.26.59.6.8,1.01.2.41.3.93.3,1.56,0,1.05-.37,1.88-1.11,2.49s-1.74.92-3,.92Z"></path><path style="stroke-width:0px;" d="M75.5,76.56v-11.72h1.34l4.87,8.02h-.87l4.87-8.02h1.34v11.72h-1.92v-8.33l.44.12-3.62,5.94h-1.34l-3.62-5.94.44-.12v8.33h-1.92Z"></path><path style="stroke-width:0px;" d="M94.98,76.73c-.84,0-1.62-.16-2.34-.47-.73-.31-1.36-.75-1.91-1.3-.55-.55-.97-1.19-1.28-1.92-.31-.73-.46-1.51-.46-2.35s.15-1.62.46-2.34c.31-.73.73-1.36,1.27-1.92.54-.55,1.17-.98,1.89-1.29s1.5-.46,2.33-.46,1.62.15,2.33.46,1.35.74,1.9,1.29c.55.55.97,1.19,1.28,1.92.31.73.46,1.51.46,2.35s-.15,1.62-.46,2.35c-.31.73-.73,1.37-1.27,1.92s-1.17.98-1.89,1.29c-.72.31-1.49.47-2.32.47ZM94.95,74.88c.79,0,1.49-.18,2.08-.54.6-.36,1.07-.85,1.41-1.48s.51-1.36.51-2.18c0-.61-.1-1.17-.29-1.68s-.47-.95-.83-1.32c-.36-.37-.78-.66-1.26-.86-.49-.2-1.02-.3-1.62-.3-.78,0-1.47.18-2.07.53-.6.35-1.07.84-1.41,1.46s-.51,1.35-.51,2.18c0,.61.1,1.18.29,1.7.19.52.47.96.82,1.33.35.37.77.66,1.26.86.49.21,1.03.31,1.61.31Z"></path><path style="stroke-width:0px;" d="M105.84,76.73c-.93,0-1.71-.17-2.36-.5s-1.23-.83-1.74-1.47l1.31-1.31c.32.47.71.83,1.15,1.1.45.26,1.02.39,1.71.39.65,0,1.16-.13,1.55-.4s.58-.64.58-1.1c0-.39-.1-.71-.3-.95-.2-.25-.47-.45-.8-.61-.33-.16-.69-.31-1.09-.44s-.79-.27-1.19-.44c-.4-.16-.76-.37-1.09-.61-.33-.25-.59-.56-.8-.95-.2-.39-.3-.89-.3-1.49,0-.69.17-1.28.51-1.77s.8-.86,1.38-1.11c.58-.26,1.23-.39,1.94-.39.77,0,1.46.15,2.07.45.61.3,1.1.69,1.48,1.16l-1.31,1.31c-.33-.38-.68-.66-1.05-.85-.36-.18-.78-.28-1.25-.28-.58,0-1.04.12-1.36.35-.33.23-.49.56-.49.99,0,.36.1.64.3.86.2.22.47.4.8.55.33.15.69.29,1.09.43.4.13.79.28,1.19.45.4.17.76.38,1.09.64.33.26.59.6.8,1.01.2.41.3.93.3,1.56,0,1.05-.37,1.88-1.11,2.49s-1.74.92-3,.92Z"></path><path style="stroke-width:0px;" d="M110.51,66.6v-1.76h9.56v1.76h-9.56ZM114.33,76.56v-11.38h1.92v11.38h-1.92Z"></path><path style="stroke-width:0px;" d="M123.69,66.6v-1.76h9.56v1.76h-9.56ZM127.5,76.56v-11.38h1.92v11.38h-1.92Z"></path><path style="stroke-width:0px;" d="M134.92,76.56v-11.72h1.92v11.72h-1.92ZM136.24,71.59v-1.59h2.96c.59,0,1.05-.15,1.38-.46.33-.31.49-.73.49-1.28,0-.49-.16-.9-.49-1.24s-.78-.5-1.37-.5h-2.98v-1.67h3.06c.74,0,1.38.15,1.94.44.56.3.99.7,1.3,1.21.31.51.46,1.08.46,1.73,0,.68-.15,1.27-.46,1.77-.31.5-.74.89-1.3,1.17-.56.28-1.21.42-1.94.42h-3.06ZM141.34,76.56l-4.1-5.09,1.79-.65,4.74,5.74h-2.43Z"></path><path style="stroke-width:0px;" d="M149.68,76.73c-.88,0-1.67-.2-2.38-.6-.7-.4-1.26-.95-1.67-1.65s-.61-1.49-.61-2.37v-7.26h1.92v7.25c0,.57.12,1.06.36,1.48.24.42.57.74.98.97.41.23.88.34,1.39.34s.99-.11,1.39-.34.72-.55.95-.97c.23-.42.35-.91.35-1.46v-7.26h1.92v7.28c0,.88-.2,1.67-.6,2.36-.4.69-.95,1.24-1.64,1.64-.69.4-1.48.6-2.38.6Z"></path><path style="stroke-width:0px;" d="M159.84,76.73c-.93,0-1.71-.17-2.36-.5s-1.23-.83-1.74-1.47l1.31-1.31c.32.47.71.83,1.15,1.1.45.26,1.01.39,1.71.39.65,0,1.16-.13,1.55-.4.38-.27.58-.64.58-1.1,0-.39-.1-.71-.3-.95-.2-.25-.47-.45-.79-.61-.33-.16-.69-.31-1.09-.44s-.79-.27-1.19-.44c-.4-.16-.76-.37-1.09-.61-.33-.25-.59-.56-.8-.95-.2-.39-.3-.89-.3-1.49,0-.69.17-1.28.51-1.77s.8-.86,1.38-1.11c.58-.26,1.23-.39,1.94-.39.77,0,1.46.15,2.07.45.61.3,1.1.69,1.48,1.16l-1.31,1.31c-.33-.38-.68-.66-1.05-.85-.36-.18-.78-.28-1.25-.28-.58,0-1.04.12-1.36.35-.33.23-.49.56-.49.99,0,.36.1.64.3.86.2.22.47.4.79.55.33.15.69.29,1.09.43.4.13.79.28,1.19.45.4.17.76.38,1.09.64.33.26.59.6.79,1.01.2.41.3.93.3,1.56,0,1.05-.37,1.88-1.11,2.49s-1.74.92-3,.92Z"></path><path style="stroke-width:0px;" d="M164.51,66.6v-1.76h9.56v1.76h-9.56ZM168.32,76.56v-11.38h1.92v11.38h-1.92Z"></path><path style="stroke-width:0px;" d="M175.74,76.56v-11.72h1.92v11.72h-1.92ZM177.06,66.6v-1.76h6.48v1.76h-6.48ZM177.06,71.42v-1.69h5.99v1.69h-5.99ZM177.06,76.56v-1.76h6.56v1.76h-6.56Z"></path><path style="stroke-width:0px;" d="M185.61,76.56v-11.72h1.92v11.72h-1.92ZM186.94,76.56v-1.76h3.08c.8,0,1.51-.17,2.12-.52s1.08-.83,1.42-1.45c.34-.62.51-1.34.51-2.15s-.17-1.51-.52-2.12c-.35-.61-.82-1.09-1.43-1.44s-1.31-.52-2.1-.52h-3.08v-1.76h3.13c.85,0,1.63.15,2.36.44s1.36.71,1.9,1.24c.54.53.96,1.15,1.26,1.86.3.71.45,1.48.45,2.32s-.15,1.6-.45,2.31c-.3.71-.72,1.34-1.25,1.87-.54.53-1.17.94-1.89,1.24s-1.51.44-2.34.44h-3.16Z"></path><path style="stroke-width:0px;" d="M200.21,66.6v-1.76h9.56v1.76h-9.56ZM204.02,76.56v-11.38h1.92v11.38h-1.92Z"></path><path style="stroke-width:0px;" d="M216.83,76.73c-.84,0-1.62-.16-2.34-.47-.73-.31-1.36-.75-1.91-1.3-.55-.55-.97-1.19-1.28-1.92-.31-.73-.46-1.51-.46-2.35s.15-1.62.46-2.34c.31-.73.73-1.36,1.27-1.92.54-.55,1.17-.98,1.89-1.29s1.5-.46,2.33-.46,1.62.15,2.33.46,1.35.74,1.9,1.29c.55.55.97,1.19,1.28,1.92.31.73.46,1.51.46,2.35s-.15,1.62-.46,2.35c-.31.73-.73,1.37-1.27,1.92-.54.55-1.17.98-1.89,1.29-.72.31-1.49.47-2.32.47ZM216.79,74.88c.79,0,1.49-.18,2.08-.54.6-.36,1.07-.85,1.41-1.48.34-.63.51-1.36.51-2.18,0-.61-.1-1.17-.29-1.68s-.47-.95-.83-1.32c-.36-.37-.78-.66-1.26-.86-.49-.2-1.02-.3-1.62-.3-.78,0-1.47.18-2.07.53-.6.35-1.07.84-1.41,1.46-.34.62-.51,1.35-.51,2.18,0,.61.1,1.18.29,1.7s.47.96.82,1.33.77.66,1.26.86c.49.21,1.03.31,1.61.31Z"></path><path style="stroke-width:0px;" d="M224.73,76.56v-11.72h1.92v11.72h-1.92ZM226.05,76.56v-1.67h3.36c.59,0,1.05-.18,1.37-.55.32-.37.49-.79.49-1.27,0-.32-.07-.62-.22-.9-.15-.28-.36-.5-.64-.67-.28-.17-.61-.25-1-.25h-3.36v-1.67h3.08c.5,0,.9-.13,1.21-.38.3-.26.45-.64.45-1.14s-.15-.88-.45-1.14c-.3-.26-.7-.38-1.21-.38h-3.08v-1.67h3.13c.79,0,1.45.14,1.98.43.52.29.92.66,1.17,1.12.26.46.38.95.38,1.47,0,.61-.17,1.16-.51,1.62-.34.47-.84.85-1.5,1.14l.15-.6c.74.3,1.31.73,1.72,1.27.41.55.62,1.19.62,1.92,0,.6-.15,1.16-.44,1.66-.3.5-.73.91-1.31,1.21-.58.31-1.28.46-2.12.46h-3.28Z"></path><path style="stroke-width:0px;" d="M234.27,76.56l4.82-11.72h1.34l4.79,11.72h-2.08l-3.75-9.49h.7l-3.78,9.49h-2.04ZM236.64,74.3v-1.67h6.21v1.67h-6.21Z"></path><path style="stroke-width:0px;" d="M252.21,76.73c-.85,0-1.63-.15-2.35-.46s-1.35-.74-1.88-1.29c-.54-.55-.95-1.19-1.24-1.92-.29-.73-.43-1.51-.43-2.35s.14-1.62.43-2.35c.29-.73.7-1.37,1.24-1.92.54-.55,1.16-.98,1.88-1.29.72-.31,1.5-.47,2.35-.47.95,0,1.77.16,2.46.47.69.31,1.31.74,1.84,1.27l-1.3,1.31c-.35-.38-.77-.67-1.26-.89-.5-.21-1.07-.32-1.73-.32-.58,0-1.11.1-1.59.3-.48.2-.9.49-1.25.86s-.62.82-.81,1.33c-.19.51-.28,1.08-.28,1.69s.09,1.18.28,1.69c.19.51.46.96.81,1.33s.77.66,1.25.86c.48.2,1.01.3,1.59.3.71,0,1.32-.11,1.82-.33.5-.22.92-.52,1.26-.9l1.31,1.31c-.54.55-1.17.98-1.89,1.29-.72.31-1.56.47-2.49.47Z"></path><path style="stroke-width:0px;" d="M263.64,76.73c-.85,0-1.63-.15-2.35-.46s-1.35-.74-1.88-1.29c-.54-.55-.95-1.19-1.24-1.92-.29-.73-.43-1.51-.43-2.35s.14-1.62.43-2.35c.29-.73.7-1.37,1.24-1.92.54-.55,1.16-.98,1.88-1.29.72-.31,1.5-.47,2.35-.47.95,0,1.77.16,2.46.47.69.31,1.31.74,1.84,1.27l-1.3,1.31c-.35-.38-.77-.67-1.26-.89-.5-.21-1.07-.32-1.73-.32-.58,0-1.11.1-1.59.3-.48.2-.9.49-1.25.86s-.62.82-.81,1.33c-.19.51-.28,1.08-.28,1.69s.09,1.18.28,1.69c.19.51.46.96.81,1.33s.77.66,1.25.86c.48.2,1.01.3,1.59.3.71,0,1.32-.11,1.82-.33.5-.22.92-.52,1.26-.9l1.31,1.31c-.54.55-1.17.98-1.89,1.29-.72.31-1.56.47-2.49.47Z"></path><path style="stroke-width:0px;" d="M275.14,76.73c-.84,0-1.62-.16-2.34-.47-.73-.31-1.36-.75-1.91-1.3-.55-.55-.97-1.19-1.28-1.92-.31-.73-.46-1.51-.46-2.35s.15-1.62.46-2.34c.31-.73.73-1.36,1.27-1.92.54-.55,1.17-.98,1.89-1.29s1.5-.46,2.33-.46,1.62.15,2.33.46,1.35.74,1.9,1.29c.55.55.97,1.19,1.28,1.92.31.73.46,1.51.46,2.35s-.15,1.62-.46,2.35c-.31.73-.73,1.37-1.27,1.92-.54.55-1.17.98-1.89,1.29-.72.31-1.49.47-2.32.47ZM275.11,74.88c.79,0,1.49-.18,2.08-.54.6-.36,1.07-.85,1.41-1.48.34-.63.51-1.36.51-2.18,0-.61-.1-1.17-.29-1.68s-.47-.95-.83-1.32c-.36-.37-.78-.66-1.26-.86-.49-.2-1.02-.3-1.62-.3-.78,0-1.47.18-2.07.53-.6.35-1.07.84-1.41,1.46-.34.62-.51,1.35-.51,2.18,0,.61.1,1.18.29,1.7s.47.96.82,1.33.77.66,1.26.86c.49.21,1.03.31,1.61.31Z"></path><path style="stroke-width:0px;" d="M283.04,76.56v-11.72h1.34l.59,2.21v9.51h-1.92ZM291.16,76.56l-7.01-9.16.23-2.56,7.01,9.16-.23,2.56ZM291.16,76.56l-.59-2.06v-9.66h1.92v11.72h-1.34Z"></path><path style="stroke-width:0px;" d="M295.04,76.56v-11.72h1.92v11.72h-1.92Z"></path><path style="stroke-width:0px;" d="M302.54,76.73c-.93,0-1.71-.17-2.36-.5s-1.23-.83-1.74-1.47l1.3-1.31c.32.47.71.83,1.16,1.1.45.26,1.02.39,1.71.39.65,0,1.16-.13,1.55-.4.38-.27.58-.64.58-1.1,0-.39-.1-.71-.3-.95-.2-.25-.47-.45-.79-.61-.33-.16-.69-.31-1.09-.44s-.79-.27-1.19-.44c-.4-.16-.76-.37-1.09-.61s-.59-.56-.79-.95c-.2-.39-.3-.89-.3-1.49,0-.69.17-1.28.51-1.77.34-.49.8-.86,1.38-1.11s1.23-.39,1.94-.39c.77,0,1.46.15,2.07.45.61.3,1.1.69,1.48,1.16l-1.31,1.31c-.33-.38-.68-.66-1.05-.85-.36-.18-.78-.28-1.25-.28-.58,0-1.04.12-1.36.35s-.49.56-.49.99c0,.36.1.64.3.86.2.22.47.4.79.55.33.15.69.29,1.09.43.4.13.79.28,1.19.45.4.17.76.38,1.09.64.33.26.59.6.79,1.01.2.41.3.93.3,1.56,0,1.05-.37,1.88-1.11,2.49s-1.74.92-3,.92Z"></path><path style="stroke-width:0px;" d="M307.21,66.6v-1.76h9.56v1.76h-9.56ZM311.02,76.56v-11.38h1.92v11.38h-1.92Z"></path></svg>